<svg width="25" height="13" viewBox="0 0 25 13" fill="none" xmlns="http://www.w3.org/2000/svg">
<path d="M7.17045 3.85227C7.13258 3.43561 6.96402 3.11174 6.66477 2.88068C6.36932 2.64583 5.94697 2.52841 5.39773 2.52841C5.03409 2.52841 4.73106 2.57576 4.48864 2.67045C4.24621 2.76515 4.06439 2.89583 3.94318 3.0625C3.82197 3.22538 3.75947 3.41288 3.75568 3.625C3.74811 3.79924 3.7822 3.95265 3.85795 4.08523C3.9375 4.2178 4.05114 4.33523 4.19886 4.4375C4.35038 4.53598 4.5322 4.62311 4.74432 4.69886C4.95644 4.77462 5.19508 4.84091 5.46023 4.89773L6.46023 5.125C7.03599 5.25 7.54356 5.41667 7.98295 5.625C8.42614 5.83333 8.79735 6.08144 9.09659 6.36932C9.39962 6.6572 9.62879 6.98864 9.78409 7.36364C9.93939 7.73864 10.0189 8.15909 10.0227 8.625C10.0189 9.35985 9.83333 9.99053 9.46591 10.517C9.09848 11.0436 8.57008 11.447 7.88068 11.7273C7.19508 12.0076 6.36742 12.1477 5.39773 12.1477C4.42424 12.1477 3.57576 12.0019 2.85227 11.7102C2.12879 11.4186 1.56629 10.9754 1.16477 10.3807C0.763258 9.78598 0.556818 9.03409 0.545455 8.125H3.23864C3.26136 8.5 3.36174 8.8125 3.53977 9.0625C3.7178 9.3125 3.96212 9.50189 4.27273 9.63068C4.58712 9.75947 4.95076 9.82386 5.36364 9.82386C5.74242 9.82386 6.06439 9.77273 6.32955 9.67045C6.59849 9.56818 6.80492 9.42614 6.94886 9.24432C7.0928 9.0625 7.16667 8.85417 7.17045 8.61932C7.16667 8.39962 7.09849 8.21212 6.96591 8.05682C6.83333 7.89773 6.62879 7.76136 6.35227 7.64773C6.07955 7.5303 5.73106 7.42235 5.30682 7.32386L4.09091 7.03977C3.08333 6.80871 2.28977 6.43561 1.71023 5.92045C1.13068 5.40151 0.842803 4.70076 0.846591 3.81818C0.842803 3.09848 1.03598 2.4678 1.42614 1.92614C1.81629 1.38447 2.35606 0.962121 3.04545 0.659091C3.73485 0.35606 4.52083 0.204545 5.40341 0.204545C6.30492 0.204545 7.08712 0.357954 7.75 0.664772C8.41667 0.967803 8.93371 1.39394 9.30114 1.94318C9.66856 2.49242 9.85606 3.12879 9.86364 3.85227H7.17045ZM11.4432 0.363636H14.9261L17.8807 7.56818H18.017L20.9716 0.363636H24.4545V12H21.7159V4.85227H21.6193L18.8239 11.9261H17.0739L14.2784 4.8125H14.1818V12H11.4432V0.363636Z" fill="#2994F7"/>
</svg>
